<svg width="150" height="131" viewBox="0 0 150 131" fill="none" xmlns="http://www.w3.org/2000/svg">
<g clip-path="url(#clip0_143_1141)">
<path fill-rule="evenodd" clip-rule="evenodd" d="M91.2308 41.0892C91.2308 42.3632 91.2288 43.6382 91.2328 44.9132C91.2328 45.0152 91.2138 45.0452 91.1028 45.0442C90.6098 45.0372 90.1178 45.0412 89.6248 45.0462C89.5568 45.0472 89.5388 45.0272 89.5438 44.9672C89.5458 44.9392 89.5448 44.9112 89.5448 44.8842C89.5448 42.8792 89.5448 40.8742 89.5438 38.8692C89.5438 38.6982 89.5658 38.7212 89.3888 38.7202C89.0558 38.7182 88.7238 38.7182 88.3908 38.7202C88.3128 38.7212 88.2888 38.6982 88.2898 38.6202C88.2928 38.1552 88.2918 37.6912 88.2898 37.2262C88.2898 37.1652 88.2958 37.1362 88.3728 37.1362C89.2858 37.1402 90.1968 37.1402 91.1098 37.1362C91.2138 37.1362 91.2338 37.1702 91.2338 37.2652C91.2308 38.5392 91.2308 39.8142 91.2308 41.0892Z" fill="#848484"/>
<path fill-rule="evenodd" clip-rule="evenodd" d="M84.4798 37C82.1748 36.998 80.3108 38.819 80.3088 41.074C80.3068 43.337 82.1588 45.178 84.4368 45.179C86.7398 45.179 88.6028 43.366 88.6048 41.118C88.6078 38.813 86.7928 37.002 84.4798 37ZM86.1088 42.965C85.6628 43.416 85.0918 43.588 84.5418 43.6C83.2598 43.6 82.3398 42.833 82.0568 41.594C81.8078 40.499 82.4138 39.244 83.4318 38.794C84.5788 38.288 86.1568 38.61 86.7288 40.166C87.1168 41.222 86.9008 42.165 86.1088 42.965Z" fill="#848484"/>
<path d="M42.4778 55.8262L38.2358 65.6252H35.9958L31.7678 55.8262H34.2178L37.1998 62.8252L40.2238 55.8262H42.4778Z" fill="#848484"/>
<path d="M53.5148 63.8052V65.6252H45.9268V55.8262H53.3328V57.6462H48.1808V59.7742H52.7308V61.5382H48.1808V63.8062L53.5148 63.8052Z" fill="#848484"/>
<path d="M64.0428 65.6252L62.1528 62.8952H60.0678V65.6252H57.7998V55.8262H62.0418C62.9098 55.8262 63.6628 55.9702 64.3028 56.2602C64.9418 56.5492 65.4338 56.9602 65.7798 57.4922C66.1258 58.0242 66.2978 58.6542 66.2978 59.3822C66.2978 60.1102 66.1228 60.7382 65.7728 61.2652C65.4228 61.7922 64.9258 62.1962 64.2818 62.4762L66.4798 65.6262H64.0438L64.0428 65.6252ZM63.4688 58.1142C63.1138 57.8202 62.5958 57.6732 61.9148 57.6732H60.0668V61.0892H61.9148C62.5968 61.0892 63.1138 60.9402 63.4688 60.6412C63.8238 60.3422 64.0008 59.9232 64.0008 59.3822C64.0008 58.8312 63.8238 58.4082 63.4688 58.1142Z" fill="#848484"/>
<path d="M70.5308 55.8262H72.7998V65.6252H70.5308V55.8262Z" fill="#848484"/>
<path d="M79.7848 57.6461V60.2361H84.3208V62.0561H79.7848V65.6261H77.5168V55.8271H84.9218V57.6471H79.7838L79.7848 57.6461Z" fill="#848484"/>
<path d="M88.8499 55.8262H91.1179V65.6252H88.8499V55.8262Z" fill="#848484"/>
<path d="M103.423 63.8052V65.6252H95.8348V55.8262H103.24V57.6462H98.0878V59.7742H102.638V61.5382H98.0878V63.8062H103.422L103.423 63.8052Z" fill="#848484"/>
<path d="M107.709 55.8262H112.161C113.225 55.8262 114.165 56.0292 114.981 56.4352C115.797 56.8412 116.432 57.4132 116.885 58.1502C117.337 58.8872 117.564 59.7462 117.564 60.7262C117.564 61.7062 117.338 62.5642 116.885 63.3022C116.432 64.0392 115.797 64.6112 114.981 65.0172C114.165 65.4232 113.224 65.6262 112.161 65.6262H107.709V55.8262ZM112.049 63.7642C113.029 63.7642 113.811 63.4912 114.393 62.9452C114.976 62.3992 115.269 61.6592 115.269 60.7262C115.269 59.7932 114.977 59.0532 114.393 58.5072C113.81 57.9612 113.029 57.6882 112.049 57.6882H109.977V63.7642H112.049Z" fill="#848484"/>
<path d="M50.1098 84.9521C49.6678 84.8231 49.3128 84.6561 49.0448 84.4521L49.5158 83.4091C49.7718 83.5971 50.0778 83.7481 50.4308 83.8631C50.7848 83.9771 51.1378 84.0341 51.4918 84.0341C51.8848 84.0341 52.1758 83.9751 52.3648 83.8591C52.5528 83.7421 52.6468 83.5871 52.6468 83.3931C52.6468 83.2501 52.5918 83.1321 52.4798 83.0381C52.3678 82.9441 52.2258 82.8681 52.0518 82.8111C51.8778 82.7541 51.6428 82.6921 51.3458 82.6231C50.8898 82.5141 50.5158 82.4061 50.2248 82.2981C49.9338 82.1891 49.6848 82.0161 49.4768 81.7761C49.2688 81.5361 49.1648 81.2181 49.1648 80.8181C49.1648 80.4711 49.2588 80.1551 49.4468 79.8731C49.6348 79.5911 49.9188 79.3671 50.2978 79.2021C50.6768 79.0361 51.1408 78.9541 51.6878 78.9541C52.0698 78.9541 52.4438 79.0001 52.8088 79.0911C53.1738 79.1821 53.4928 79.3141 53.7668 79.4851L53.3388 80.5371C52.7858 80.2241 52.2328 80.0671 51.6798 80.0671C51.2918 80.0671 51.0058 80.1301 50.8198 80.2551C50.6338 80.3801 50.5418 80.5461 50.5418 80.7501C50.5418 80.9541 50.6488 81.1081 50.8628 81.2081C51.0768 81.3081 51.4028 81.4061 51.8418 81.5041C52.2978 81.6121 52.6718 81.7211 52.9618 81.8291C53.2528 81.9381 53.5018 82.1091 53.7098 82.3431C53.9178 82.5771 54.0218 82.8931 54.0218 83.2921C54.0218 83.6341 53.9258 83.9471 53.7348 84.2291C53.5438 84.5111 53.2568 84.7361 52.8748 84.9011C52.4928 85.0671 52.0278 85.1491 51.4808 85.1491C51.0078 85.1491 50.5498 85.0851 50.1078 84.9571V84.9551L50.1098 84.9521Z" fill="#848484"/>
<path d="M56.6998 80.1842H54.7838V79.0542H60.0018V80.1842H58.0858V85.0422H56.7008V80.1842H56.6998Z" fill="#848484"/>
<path d="M64.5008 83.7592H61.7208L61.1908 85.0422H59.7708L62.4398 79.0542H63.8088L66.4858 85.0422H65.0318L64.5008 83.7592ZM64.0648 82.7062L63.1148 80.4142L62.1648 82.7062H64.0648Z" fill="#848484"/>
<path d="M73.0358 79.0542V85.0422H71.8988L68.9128 81.4062V85.0422H67.5438V79.0542H68.6898L71.6668 82.6902V79.0542H73.0348H73.0358Z" fill="#848484"/>
<path d="M74.8788 79.0542H77.5988C78.2488 79.0542 78.8238 79.1782 79.3218 79.4262C79.8198 79.6742 80.2088 80.0242 80.4848 80.4742C80.7608 80.9252 80.8998 81.4492 80.8998 82.0482C80.8998 82.6472 80.7608 83.1722 80.4848 83.6222C80.2078 84.0732 79.8198 84.4222 79.3218 84.6702C78.8238 84.9182 78.2488 85.0422 77.5988 85.0422H74.8788V79.0542ZM77.5308 83.9052C78.1298 83.9052 78.6078 83.7382 78.9638 83.4052C79.3208 83.0712 79.4988 82.6202 79.4988 82.0492C79.4988 81.4782 79.3208 81.0272 78.9638 80.6932C78.6078 80.3592 78.1298 80.1932 77.5308 80.1932H76.2648V83.9062L77.5308 83.9052Z" fill="#848484"/>
<path d="M85.6078 83.7592H82.8278L82.2978 85.0422H80.8778L83.5468 79.0542H84.9148L87.5918 85.0422H86.1378L85.6078 83.7592ZM85.1718 82.7062L84.2218 80.4142L83.2718 82.7062H85.1718Z" fill="#848484"/>
<path d="M92.0389 85.0422L90.8839 83.3742H89.6099V85.0422H88.2249V79.0542H90.8169C91.3469 79.0542 91.8079 79.1422 92.1989 79.3192C92.5899 79.4962 92.8899 79.7472 93.1019 80.0722C93.3119 80.3972 93.4189 80.7822 93.4189 81.2272C93.4189 81.6722 93.3119 82.0552 93.0979 82.3782C92.8839 82.7002 92.5799 82.9462 92.1869 83.1182L93.5299 85.0432H92.0409L92.0389 85.0422ZM91.6879 80.4532C91.4709 80.2732 91.1549 80.1832 90.7379 80.1832H89.6089V82.2702H90.7379C91.1539 82.2702 91.4709 82.1792 91.6879 81.9962C91.9049 81.8142 92.0129 81.5572 92.0129 81.2272C92.0129 80.8912 91.9039 80.6332 91.6879 80.4532Z" fill="#848484"/>
<path d="M94.5158 79.0542H97.2358C97.8858 79.0542 98.4608 79.1782 98.9588 79.4262C99.4568 79.6742 99.8458 80.0242 100.122 80.4742C100.398 80.9252 100.537 81.4492 100.537 82.0482C100.537 82.6472 100.398 83.1722 100.122 83.6222C99.8448 84.0732 99.4568 84.4222 98.9588 84.6702C98.4608 84.9182 97.8858 85.0422 97.2358 85.0422H94.5158V79.0542ZM97.1678 83.9052C97.7668 83.9052 98.2448 83.7382 98.6008 83.4052C98.9578 83.0712 99.1358 82.6202 99.1358 82.0492C99.1358 81.4782 98.9578 81.0272 98.6008 80.6932C98.2448 80.3592 97.7668 80.1932 97.1678 80.1932H95.9018V83.9062L97.1678 83.9052Z" fill="#848484"/>
<path d="M116.977 71.5918H31.8938V72.1478H116.977V71.5918Z" fill="#848484"/>
<path fill-rule="evenodd" clip-rule="evenodd" d="M71.0448 45.0119C71.5588 45.0079 72.0728 45.0089 72.5868 45.0099C72.6428 45.0099 72.6928 45.0089 72.6888 44.9329C72.6578 44.8439 72.6278 44.7529 72.5928 44.6649C71.6448 42.1909 70.6948 39.7169 69.7478 37.2429C69.7168 37.1609 69.6778 37.1299 69.5858 37.1309C69.2088 37.1379 68.8328 37.1389 68.4558 37.1309C68.3468 37.1289 68.2988 37.1609 68.2608 37.2639C67.5258 39.2049 66.7878 41.1449 66.0508 43.0849C65.8478 43.6199 65.6438 44.1549 65.4398 44.6929C65.3478 44.6049 63.7218 42.3349 63.6818 42.2439C64.6898 41.9489 65.3278 41.3219 65.4878 40.2669C65.4718 40.2109 65.4528 40.1549 65.5018 40.1049C65.5408 39.8719 65.5258 39.6399 65.5018 39.4069C65.3718 38.1659 64.4898 37.2969 63.2368 37.1769C63.1798 37.1989 63.1228 37.2179 63.0718 37.1639C62.9218 37.1309 62.7698 37.1369 62.6198 37.1369C61.7858 37.1329 60.9528 37.1369 60.1198 37.1319C60.0068 37.1319 59.9838 37.1649 59.9838 37.2699C59.9868 39.8109 59.9858 42.3509 59.9858 44.8919C59.9858 44.9309 59.9898 44.9708 59.9908 45.0108H61.6688V42.3099C61.9608 42.6789 62.2258 43.0499 62.4938 43.4199C62.8768 43.9509 63.2618 44.4809 63.6458 45.0108C64.7398 45.0108 65.8348 45.0108 66.9288 45.0108C66.9828 45.0108 67.0348 45.0039 67.0838 44.9879C67.0978 44.9599 67.1138 44.9329 67.1248 44.9039C67.2988 44.4449 67.4748 43.9859 67.6448 43.5259C67.6768 43.4399 67.7128 43.4069 67.8118 43.4079C68.5858 43.4139 69.3588 43.4149 70.1318 43.4079C70.2758 43.4059 70.3338 43.4489 70.3818 43.5839C70.5548 44.0629 70.7448 44.5368 70.9288 45.0139C70.9658 44.9679 71.0048 45.0149 71.0428 45.0149M63.2258 40.7209C63.0358 40.8059 62.8308 40.8389 62.6288 40.8819C62.5558 40.9409 62.4738 40.9089 62.3948 40.9009C62.1828 40.9039 61.9708 40.9039 61.7588 40.9089C61.6928 40.9109 61.6688 40.8959 61.6698 40.8249C61.6718 40.1509 61.6718 39.4759 61.6698 38.8009C61.6698 38.7429 61.6788 38.7169 61.7468 38.7189C62.0908 38.7269 62.4348 38.7079 62.7788 38.7319C62.8278 38.7209 62.8778 38.6969 62.9178 38.7499C63.0928 38.8019 63.2688 38.8519 63.4198 38.9619C63.7518 39.2039 63.8638 39.5399 63.8288 39.9299C63.7938 40.3149 63.5738 40.5669 63.2258 40.7209ZM69.6538 41.9119C69.2208 41.9119 68.7878 41.9119 68.3558 41.9119C68.3228 41.9119 68.2818 41.9249 68.2628 41.8799C68.3328 41.6119 68.4428 41.3569 68.5328 41.0959C68.6778 40.6769 68.8298 40.2599 68.9788 39.8429C68.9868 39.8209 68.9888 39.7959 69.0188 39.7789C69.1998 40.2929 69.3808 40.8049 69.5588 41.3189C69.6228 41.5059 69.7038 41.6859 69.7458 41.8809C69.7268 41.9259 69.6868 41.9129 69.6528 41.9129M76.6188 38.6109C77.2318 38.6999 77.7018 39.0419 78.0908 39.5049C78.1488 39.5739 78.2068 39.6079 78.3028 39.6069C78.8718 39.6019 79.4408 39.6049 80.0098 39.6039C80.0478 39.6039 80.0878 39.6149 80.1248 39.5929C79.2858 37.7169 77.5168 36.7379 75.5198 37.0639C73.5078 37.3919 72.0638 39.1689 72.1218 41.2109C72.1778 43.1639 73.6988 44.8939 75.6628 45.1439C77.6918 45.4009 79.3268 44.3009 80.0758 42.6299H79.9558C79.4188 42.6299 78.8818 42.6349 78.3448 42.6269C78.1808 42.6239 78.0508 42.6439 77.9568 42.7929C77.9178 42.8549 77.8548 42.9049 77.7998 42.9549C77.2608 43.4389 76.6378 43.6819 75.9058 43.5739C74.7388 43.3999 73.8748 42.3669 73.8148 41.2029C73.7808 40.5369 73.9758 39.9369 74.4178 39.4329C74.9988 38.7699 75.7378 38.4829 76.6188 38.6109ZM101.666 43.5809C101.668 43.4769 101.631 43.4589 101.536 43.4599C100.943 43.4639 100.35 43.4619 99.7568 43.4619H98.8558C98.8098 43.4619 98.7568 43.4749 98.7578 43.3969C98.7608 42.9249 98.7658 42.4519 98.7618 41.9799C98.7598 41.8599 98.8088 41.8409 98.9168 41.8419C99.7908 41.8459 100.664 41.8429 101.538 41.8469C101.635 41.8469 101.669 41.8249 101.667 41.7229C101.661 41.2779 101.661 40.8339 101.667 40.3889C101.667 40.2909 101.641 40.2639 101.54 40.2639C100.659 40.2679 99.7768 40.2639 98.8958 40.2689C98.7818 40.2689 98.7548 40.2339 98.7568 40.1279C98.7628 39.7029 98.7638 39.2779 98.7568 38.8539C98.7548 38.7409 98.7918 38.7179 98.8978 38.7189C99.7788 38.7229 100.66 38.7209 101.542 38.7209C101.603 38.7209 101.668 38.7409 101.667 38.6329C101.662 38.1609 101.665 37.6879 101.666 37.2159C101.666 37.1589 101.655 37.1349 101.586 37.1349C101.05 37.1399 100.514 37.1409 99.9778 37.1409C99.0578 37.1409 98.1378 37.1429 97.2178 37.1389C97.1048 37.1389 97.0698 37.1639 97.0708 37.2819C97.0748 38.5519 97.0728 39.8229 97.0728 41.0929C97.0728 42.3629 97.0748 43.6259 97.0708 44.8919C97.0698 45.0079 97.0928 45.0479 97.2198 45.0469C97.8048 45.0388 98.3898 45.0429 98.9748 45.0429C99.8368 45.0449 100.698 45.0469 101.559 45.0499C101.639 45.0499 101.669 45.0259 101.668 44.9409C101.664 44.4889 101.663 44.0359 101.668 43.5829M58.8558 37.1309C57.4128 37.1339 55.9698 37.1329 54.5278 37.1339C54.4888 37.1339 54.4478 37.1209 54.4108 37.1459C54.4108 39.7229 54.4108 42.2999 54.4078 44.8769C54.4078 44.9919 54.4488 45.0119 54.5528 45.0108C56.0278 45.0078 57.5018 45.0099 58.9768 45.0099V43.4839C58.0618 43.4839 57.1468 43.4839 56.2328 43.4839C56.1868 43.4839 56.1358 43.5019 56.0968 43.4619L56.0748 43.4359C56.0338 43.4079 56.0478 43.3649 56.0478 43.3269C56.0468 42.8759 56.0468 42.4239 56.0478 41.9739C56.0478 41.9359 56.0308 41.8929 56.0768 41.8659L56.0968 41.8419C56.1358 41.7969 56.1868 41.8179 56.2328 41.8179C57.1478 41.8159 58.0628 41.8179 58.9778 41.8179V40.2929C58.0628 40.2929 57.1468 40.2929 56.2318 40.2919C56.1868 40.2919 56.1348 40.3119 56.0968 40.2679L56.0768 40.2439C56.0348 40.2219 56.0478 40.1819 56.0478 40.1479C56.0468 39.7079 56.0468 39.2669 56.0478 38.8269C56.0478 38.7959 56.0358 38.7599 56.0628 38.7359C56.0678 38.7299 56.0748 38.7259 56.0828 38.7239C56.1308 38.7229 56.1788 38.7209 56.2268 38.7209C57.1088 38.7209 57.9908 38.7189 58.8718 38.7229C58.9628 38.7239 58.9828 38.6999 58.9818 38.6129C58.9768 38.1599 58.9758 37.7069 58.9828 37.2539C58.9838 37.1509 58.9528 37.1339 58.8568 37.1339" fill="#848484"/>
<path fill-rule="evenodd" clip-rule="evenodd" d="M53.8528 37.1309C53.3358 37.1349 52.8189 37.1349 52.3019 37.1309C52.2139 37.1309 52.1708 37.1509 52.1368 37.2389C51.5708 38.6939 51.0008 40.1469 50.4318 41.6009C50.3728 41.7509 50.3129 41.8989 50.2459 42.0659L50.2009 41.9569C49.5839 40.3819 48.9658 38.8069 48.3518 37.2309C48.3228 37.1549 48.2868 37.1299 48.2058 37.1309C47.6888 37.1349 47.1719 37.1329 46.6549 37.1329C46.5439 37.1329 46.5088 37.1819 46.5478 37.2789C47.5808 39.8159 48.6138 42.3519 49.6478 44.8869C49.6678 44.9359 49.6738 44.9939 49.7208 45.0299C49.7558 44.9919 49.8038 45.0079 49.8448 45.0079C50.1558 45.0069 50.4679 45.0079 50.7779 45.0079C50.7909 44.9839 50.8059 44.9599 50.8159 44.9349L51.5619 43.0949C52.3519 41.1449 53.1419 39.1949 53.9369 37.2459C53.9829 37.1349 53.9518 37.1289 53.8518 37.1289" fill="#848484"/>
<path fill-rule="evenodd" clip-rule="evenodd" d="M93.9568 37.388C93.3128 37.159 92.6448 37.122 91.9698 37.138C91.8938 37.14 91.9018 37.187 91.9018 37.234C91.9018 37.699 91.9038 38.163 91.8998 38.627C91.8998 38.702 91.9238 38.72 91.9968 38.72C92.2438 38.721 92.4918 38.708 92.7408 38.742C93.3828 38.83 93.9148 39.104 94.2828 39.645C94.6858 40.24 94.7888 40.898 94.6948 41.6C94.5748 42.502 94.0008 43.146 93.1118 43.365C92.7458 43.455 92.3758 43.468 92.0028 43.458C91.9258 43.457 91.8998 43.478 91.9008 43.557C91.9058 43.787 91.9028 44.018 91.9028 44.248C91.9028 44.482 91.9048 44.716 91.9018 44.951C91.9018 45.017 91.9208 45.04 91.9898 45.04C92.5758 45.046 93.1578 45.027 93.7268 44.865C94.4668 44.656 95.1068 44.282 95.5858 43.683C96.1828 42.939 96.3988 42.058 96.4158 41.127C96.4278 40.509 96.2818 39.916 96.0308 39.351C95.6128 38.413 94.9418 37.738 93.9568 37.387" fill="#848484"/>
<path fill-rule="evenodd" clip-rule="evenodd" d="M58.8568 45.02C57.4148 45.021 55.9718 45.021 54.5308 45.021C54.3978 45.021 54.3978 45.02 54.3978 44.883V37.275C54.3978 37.232 54.3868 37.188 54.4098 37.146C54.3668 37.18 54.3908 37.227 54.3908 37.268C54.3888 38.086 54.3898 38.904 54.3898 39.721C54.3898 41.455 54.3898 43.189 54.3898 44.924C54.3898 44.999 54.3878 45.047 54.4918 45.047C55.9578 45.043 57.4238 45.045 58.8908 45.044C58.9208 45.044 58.9658 45.066 58.9758 45.01C58.9378 45.032 58.8978 45.022 58.8578 45.022" fill="#848484"/>
<path fill-rule="evenodd" clip-rule="evenodd" d="M54.4068 44.876C54.4108 42.299 54.4098 39.723 54.4098 37.146C54.3868 37.187 54.3988 37.232 54.3988 37.275C54.3978 39.811 54.3978 42.347 54.3978 44.883C54.3978 44.975 54.4418 45.021 54.5308 45.021H58.8568C58.8958 45.021 58.9378 45.03 58.9748 45.01C57.5008 45.01 56.0258 45.01 54.5518 45.011C54.4478 45.011 54.4078 44.993 54.4078 44.877" fill="#848484"/>
<path fill-rule="evenodd" clip-rule="evenodd" d="M56.2228 40.2792C57.0968 40.2802 57.9718 40.2802 58.8448 40.2812C58.8888 40.2812 58.9328 40.2692 58.9738 40.2922C58.9618 40.2432 58.9228 40.2652 58.8968 40.2652C57.9628 40.2652 57.0288 40.2652 56.0948 40.2672C56.1348 40.2932 56.1808 40.2792 56.2228 40.2792Z" fill="#848484"/>
<path fill-rule="evenodd" clip-rule="evenodd" d="M56.2298 40.2902C57.1448 40.2922 58.0598 40.2912 58.9748 40.2912C58.9338 40.2692 58.8888 40.2802 58.8458 40.2802C57.9718 40.2792 57.0978 40.2802 56.2238 40.2782C56.1808 40.2782 56.1358 40.2912 56.0948 40.2652C56.1328 40.3102 56.1848 40.2902 56.2298 40.2902ZM56.0568 38.7782C56.0568 39.2482 56.0568 39.7172 56.0568 40.1872C56.0568 40.2072 56.0558 40.2272 56.0748 40.2412L56.0818 38.7222C56.0748 38.7252 56.0678 38.7292 56.0618 38.7342C56.0528 38.7472 56.0578 38.7652 56.0578 38.7792" fill="#848484"/>
<path fill-rule="evenodd" clip-rule="evenodd" d="M56.0458 38.8239C56.0448 39.2639 56.0448 39.7049 56.0458 40.1449C56.0458 40.1789 56.0328 40.2179 56.0748 40.2409C56.0548 40.2279 56.0568 40.2079 56.0568 40.1879C56.0568 39.7179 56.0568 39.2489 56.0568 38.7789C56.0568 38.7649 56.0518 38.7459 56.0608 38.7339C56.0338 38.7569 56.0458 38.7939 56.0458 38.8239ZM65.4868 40.2649C65.4918 40.2109 65.4958 40.1569 65.5008 40.1029C65.4648 40.1539 65.4918 40.2119 65.4868 40.2649Z" fill="#848484"/>
<path fill-rule="evenodd" clip-rule="evenodd" d="M65.4868 40.2661C65.4918 40.2121 65.4648 40.1551 65.5008 40.1041C65.4518 40.1541 65.4708 40.2111 65.4868 40.2661ZM63.2358 37.1761L63.0708 37.1631C63.1228 37.2021 63.1798 37.1781 63.2358 37.1761Z" fill="#848484"/>
<path fill-rule="evenodd" clip-rule="evenodd" d="M63.2358 37.1761C63.1808 37.1781 63.1238 37.2021 63.0708 37.1631C63.1218 37.2181 63.1778 37.1991 63.2358 37.1761ZM62.4258 40.8981L62.3958 40.9001C62.4748 40.9091 62.5558 40.9401 62.6298 40.8811C62.5638 40.9141 62.4938 40.8951 62.4258 40.8981Z" fill="#848484"/>
<path fill-rule="evenodd" clip-rule="evenodd" d="M62.6308 40.881L62.4268 40.898C62.4948 40.896 62.5658 40.913 62.6308 40.881ZM62.9198 38.748C62.8798 38.695 62.8298 38.719 62.7808 38.729C62.8268 38.738 62.8778 38.712 62.9198 38.748Z" fill="#848484"/>
<path fill-rule="evenodd" clip-rule="evenodd" d="M62.7818 38.73L62.9208 38.749C62.8788 38.714 62.8278 38.74 62.7818 38.73Z" fill="#848484"/>
</g>
<mask id="mask0_143_1141" style="mask-type:luminance" maskUnits="userSpaceOnUse" x="109" y="0" width="13" height="12">
<path d="M117.316 3.28358C120.664 6.33482 121.264 11.1226 121.264 11.1226C121.264 11.1226 116.442 10.963 113.095 7.91174C109.747 4.8605 109.147 0.0727539 109.147 0.0727539C109.147 0.0727539 113.969 0.232344 117.316 3.28358Z" fill="white"/>
</mask>
<g mask="url(#mask0_143_1141)">
<mask id="mask1_143_1141" style="mask-type:luminance" maskUnits="userSpaceOnUse" x="109" y="0" width="13" height="12">
<path d="M121.264 0.0727539H109.147V11.1264H121.264V0.0727539Z" fill="white"/>
</mask>
<g mask="url(#mask1_143_1141)">
<rect width="12.7673" height="11.3994" transform="matrix(1 0 0 -1 108.968 11.2788)" fill="#848484"/>
</g>
</g>
<mask id="mask2_143_1141" style="mask-type:luminance" maskUnits="userSpaceOnUse" x="90" y="109" width="12" height="15">
<path d="M93.788 115.739C90.9078 119.436 90.733 123.798 90.771 123.813C90.7596 123.87 96.8165 122.176 99.5333 118.098C102.25 114.074 100.928 109.902 100.966 109.914C100.951 109.952 96.6607 112.076 93.7842 115.739H93.788Z" fill="white"/>
</mask>
<g mask="url(#mask2_143_1141)">
<mask id="mask3_143_1141" style="mask-type:luminance" maskUnits="userSpaceOnUse" x="90" y="109" width="13" height="15">
<path d="M102.25 109.902H90.733V123.866H102.25V109.902Z" fill="white"/>
</mask>
<g mask="url(#mask3_143_1141)">
<rect width="12.1594" height="14.3632" transform="matrix(1 0 0 -1 90.5544 124.037)" fill="#848484"/>
</g>
</g>
<mask id="mask4_143_1141" style="mask-type:luminance" maskUnits="userSpaceOnUse" x="90" y="122" width="20" height="7">
<path d="M98.0287 128.536C92.7127 127.635 90.733 123.615 90.733 123.65C90.7938 123.669 96.4897 122.027 101.399 122.601C106.354 123.205 109.268 126.283 109.268 126.313C109.337 126.328 103.405 129.456 98.0325 128.532L98.0287 128.536Z" fill="white"/>
</mask>
<g mask="url(#mask4_143_1141)">
<mask id="mask5_143_1141" style="mask-type:luminance" maskUnits="userSpaceOnUse" x="90" y="122" width="20" height="8">
<path d="M109.333 122.023H90.7292V129.456H109.333V122.023Z" fill="white"/>
</mask>
<g mask="url(#mask5_143_1141)">
<rect width="19.151" height="7.75159" transform="matrix(1 0 0 -1 90.5089 129.623)" fill="#848484"/>
</g>
</g>
<mask id="mask6_143_1141" style="mask-type:luminance" maskUnits="userSpaceOnUse" x="102" y="104" width="9" height="16">
<path d="M104.295 111.122C102.315 115.172 103.025 119.413 103.063 119.421C103.06 119.478 108.379 116.833 110.173 112.436C111.97 108.086 109.926 104.275 109.964 104.278C109.956 104.32 106.278 107.105 104.298 111.122H104.295Z" fill="white"/>
</mask>
<g mask="url(#mask6_143_1141)">
<mask id="mask7_143_1141" style="mask-type:luminance" maskUnits="userSpaceOnUse" x="102" y="104" width="10" height="16">
<path d="M111.97 104.271H102.315V119.474H111.97V104.271Z" fill="white"/>
</mask>
<g mask="url(#mask7_143_1141)">
<rect width="10.3355" height="15.6552" transform="matrix(1 0 0 -1 102.132 119.694)" fill="#848484"/>
</g>
</g>
<mask id="mask8_143_1141" style="mask-type:luminance" maskUnits="userSpaceOnUse" x="102" y="116" width="19" height="7">
<path d="M110.785 122.768C105.617 122.783 102.987 119.234 102.991 119.269C103.048 119.276 108.041 116.742 112.806 116.472C117.617 116.217 120.987 118.702 120.991 118.733C121.055 118.737 116.006 122.764 110.785 122.768Z" fill="white"/>
</mask>
<g mask="url(#mask8_143_1141)">
<mask id="mask9_143_1141" style="mask-type:luminance" maskUnits="userSpaceOnUse" x="102" y="116" width="20" height="7">
<path d="M121.055 116.221H102.987V122.787H121.055V116.221Z" fill="white"/>
</mask>
<g mask="url(#mask9_143_1141)">
<rect width="18.847" height="6.91564" transform="matrix(1 0 0 -1 102.786 122.981)" fill="#848484"/>
</g>
</g>
<mask id="mask10_143_1141" style="mask-type:luminance" maskUnits="userSpaceOnUse" x="112" y="97" width="8" height="17">
<path d="M113.365 104.879C112.24 109.138 113.737 113.113 113.771 113.117C113.771 113.174 118.331 109.716 119.243 105.145C120.166 100.623 117.503 97.2753 117.537 97.2715C117.537 97.3133 114.493 100.653 113.365 104.879Z" fill="white"/>
</mask>
<g mask="url(#mask10_143_1141)">
<mask id="mask11_143_1141" style="mask-type:luminance" maskUnits="userSpaceOnUse" x="112" y="97" width="9" height="17">
<path d="M120.166 97.2681H112.24V113.166H120.166V97.2681Z" fill="white"/>
</mask>
<g mask="url(#mask11_143_1141)">
<rect width="8.51155" height="16.3391" transform="matrix(1 0 0 -1 112.054 113.364)" fill="#848484"/>
</g>
</g>
<mask id="mask12_143_1141" style="mask-type:luminance" maskUnits="userSpaceOnUse" x="113" y="108" width="18" height="8">
<path d="M121.77 115.043C116.838 115.936 113.672 112.946 113.68 112.98C113.733 112.98 117.997 109.682 122.53 108.603C127.108 107.531 130.821 109.359 130.832 109.389C130.893 109.385 126.759 114.154 121.774 115.043H121.77Z" fill="white"/>
</mask>
<g mask="url(#mask12_143_1141)">
<mask id="mask13_143_1141" style="mask-type:luminance" maskUnits="userSpaceOnUse" x="113" y="107" width="18" height="9">
<path d="M130.889 107.535H113.669V115.94H130.889V107.535Z" fill="white"/>
</mask>
<g mask="url(#mask13_143_1141)">
<rect width="17.9351" height="8.81554" transform="matrix(1 0 0 -1 113.479 116.149)" fill="#848484"/>
</g>
</g>
<mask id="mask14_143_1141" style="mask-type:luminance" maskUnits="userSpaceOnUse" x="120" y="89" width="7" height="17">
<path d="M120.938 97.2641C120.622 101.596 122.803 105.187 122.834 105.183C122.841 105.236 126.607 101.102 126.683 96.4966C126.774 91.9406 123.601 89.1439 123.632 89.1401C123.632 89.1819 121.261 92.9665 120.934 97.2641H120.938Z" fill="white"/>
</mask>
<g mask="url(#mask14_143_1141)">
<mask id="mask15_143_1141" style="mask-type:luminance" maskUnits="userSpaceOnUse" x="120" y="89" width="7" height="17">
<path d="M126.774 89.1401H120.622V105.236H126.774V89.1401Z" fill="white"/>
</mask>
<g mask="url(#mask15_143_1141)">
<rect width="6.68765" height="16.4911" transform="matrix(1 0 0 -1 120.406 105.415)" fill="#848484"/>
</g>
</g>
<mask id="mask16_143_1141" style="mask-type:luminance" maskUnits="userSpaceOnUse" x="122" y="98" width="17" height="9">
<path d="M130.908 105.677C126.299 107.394 122.708 105.042 122.72 105.073C122.769 105.065 126.273 101.132 130.487 99.2932C134.742 97.4579 138.687 98.5788 138.698 98.6092C138.755 98.594 135.567 103.956 130.908 105.677Z" fill="white"/>
</mask>
<g mask="url(#mask16_143_1141)">
<mask id="mask17_143_1141" style="mask-type:luminance" maskUnits="userSpaceOnUse" x="122" y="97" width="17" height="11">
<path d="M138.755 97.4536H122.708V107.394H138.755V97.4536Z" fill="white"/>
</mask>
<g mask="url(#mask17_143_1141)">
<rect width="16.7191" height="10.3355" transform="matrix(1 0 0 -1 122.553 107.607)" fill="#848484"/>
</g>
</g>
<mask id="mask18_143_1141" style="mask-type:luminance" maskUnits="userSpaceOnUse" x="126" y="80" width="7" height="16">
<path d="M126.945 88.5356C127.39 92.8066 130.148 95.9186 130.179 95.911C130.194 95.9642 133.131 91.2829 132.421 86.7763C131.733 82.3154 128.157 80.1419 128.188 80.1343C128.199 80.1761 126.512 84.2951 126.945 88.5356Z" fill="white"/>
</mask>
<g mask="url(#mask18_143_1141)">
<mask id="mask19_143_1141" style="mask-type:luminance" maskUnits="userSpaceOnUse" x="126" y="80" width="8" height="16">
<path d="M133.127 80.1343H126.512V95.9642H133.127V80.1343Z" fill="white"/>
</mask>
<g mask="url(#mask19_143_1141)">
<rect width="7.29562" height="16.1871" transform="matrix(1 0 0 -1 126.311 96.1313)" fill="#848484"/>
</g>
</g>
<mask id="mask20_143_1141" style="mask-type:luminance" maskUnits="userSpaceOnUse" x="130" y="86" width="15" height="11">
<path d="M138.128 94.9804C133.937 97.4616 130.031 95.7935 130.046 95.8239C130.091 95.8087 132.808 91.3705 136.616 88.8323C140.461 86.2902 144.512 86.6892 144.527 86.7158C144.58 86.693 142.369 92.4877 138.128 94.9804Z" fill="white"/>
</mask>
<g mask="url(#mask20_143_1141)">
<mask id="mask21_143_1141" style="mask-type:luminance" maskUnits="userSpaceOnUse" x="130" y="86" width="15" height="12">
<path d="M144.576 86.29H130.031V97.4577H144.576V86.29Z" fill="white"/>
</mask>
<g mask="url(#mask21_143_1141)">
<rect width="15.1992" height="11.5514" transform="matrix(1 0 0 -1 129.822 97.6665)" fill="#848484"/>
</g>
</g>
<mask id="mask22_143_1141" style="mask-type:luminance" maskUnits="userSpaceOnUse" x="130" y="70" width="7" height="16">
<path d="M131.326 78.9566C132.481 83.0566 135.711 85.6025 135.738 85.5911C135.761 85.6405 137.839 80.5525 136.395 76.2626C134.974 72.0144 131.114 70.5211 131.14 70.5059C131.155 70.5439 130.19 74.887 131.326 78.9604V78.9566Z" fill="white"/>
</mask>
<g mask="url(#mask22_143_1141)">
<mask id="mask23_143_1141" style="mask-type:luminance" maskUnits="userSpaceOnUse" x="130" y="70" width="8" height="16">
<path d="M137.839 70.5059H130.19V85.6405H137.839V70.5059Z" fill="white"/>
</mask>
<g mask="url(#mask23_143_1141)">
<rect width="8.20757" height="15.5032" transform="matrix(1 0 0 -1 130 85.8081)" fill="#848484"/>
</g>
</g>
<mask id="mask24_143_1141" style="mask-type:luminance" maskUnits="userSpaceOnUse" x="135" y="74" width="14" height="12">
<path d="M143.356 83.2692C139.671 86.4344 135.574 85.4997 135.593 85.5263C135.631 85.5035 137.539 80.6891 140.845 77.5239C144.185 74.3472 148.22 74.0129 148.239 74.0395C148.285 74.0091 147.084 80.0849 143.356 83.2692Z" fill="white"/>
</mask>
<g mask="url(#mask24_143_1141)">
<mask id="mask25_143_1141" style="mask-type:luminance" maskUnits="userSpaceOnUse" x="135" y="74" width="14" height="13">
<path d="M148.285 74.0093H135.575V86.4384H148.285V74.0093Z" fill="white"/>
</mask>
<g mask="url(#mask25_143_1141)">
<rect width="13.3753" height="12.8433" transform="matrix(1 0 0 -1 135.4 86.624)" fill="#848484"/>
</g>
</g>
<mask id="mask26_143_1141" style="mask-type:luminance" maskUnits="userSpaceOnUse" x="132" y="60" width="8" height="15">
<path d="M134.017 68.7844C135.833 72.6032 139.42 74.5221 139.443 74.5069C139.473 74.5525 140.662 69.191 138.531 65.2278C136.433 61.2988 132.398 60.5161 132.424 60.4971C132.447 60.5313 132.227 64.9922 134.017 68.7882V68.7844Z" fill="white"/>
</mask>
<g mask="url(#mask26_143_1141)">
<mask id="mask27_143_1141" style="mask-type:luminance" maskUnits="userSpaceOnUse" x="132" y="60" width="9" height="15">
<path d="M140.662 60.4971H132.227V74.5525H140.662V60.4971Z" fill="white"/>
</mask>
<g mask="url(#mask27_143_1141)">
<rect width="9.11952" height="14.4392" transform="matrix(1 0 0 -1 132.018 74.7349)" fill="#848484"/>
</g>
</g>
<mask id="mask28_143_1141" style="mask-type:luminance" maskUnits="userSpaceOnUse" x="139" y="60" width="11" height="15">
<path d="M146.522 70.8669C143.44 74.6363 139.272 74.4425 139.295 74.4691C139.329 74.4425 140.396 69.3811 143.106 65.6687C145.849 61.9449 149.74 60.8848 149.763 60.9076C149.805 60.8696 149.645 67.0747 146.522 70.8669Z" fill="white"/>
</mask>
<g mask="url(#mask28_143_1141)">
<mask id="mask29_143_1141" style="mask-type:luminance" maskUnits="userSpaceOnUse" x="139" y="60" width="11" height="15">
<path d="M149.805 60.8735H139.268V74.6364H149.805V60.8735Z" fill="white"/>
</mask>
<g mask="url(#mask29_143_1141)">
<rect width="10.9434" height="14.2113" transform="matrix(1 0 0 -1 139.097 74.8564)" fill="#848484"/>
</g>
</g>
<mask id="mask30_143_1141" style="mask-type:luminance" maskUnits="userSpaceOnUse" x="131" y="50" width="11" height="13">
<path d="M134.955 58.2815C137.376 61.7279 141.206 62.9704 141.229 62.9514C141.267 62.9932 141.533 57.4911 138.774 53.9497C136.049 50.4387 131.965 50.3817 131.984 50.3589C132.014 50.3893 132.565 54.854 134.955 58.2815Z" fill="white"/>
</mask>
<g mask="url(#mask30_143_1141)">
<mask id="mask31_143_1141" style="mask-type:luminance" maskUnits="userSpaceOnUse" x="131" y="50" width="11" height="13">
<path d="M141.533 50.3589H131.961V62.9894H141.533V50.3589Z" fill="white"/>
</mask>
<g mask="url(#mask31_143_1141)">
<rect width="10.0315" height="13.0713" transform="matrix(1 0 0 -1 131.798 63.2065)" fill="#848484"/>
</g>
</g>
<mask id="mask32_143_1141" style="mask-type:luminance" maskUnits="userSpaceOnUse" x="141" y="47" width="9" height="16">
<path d="M147.544 58.0921C145.161 62.363 141.042 62.9216 141.069 62.9406C141.096 62.9064 141.297 57.7273 143.318 53.5665C145.367 49.3867 148.988 47.635 149.018 47.654C149.056 47.6122 149.968 53.7869 147.544 58.0883V58.0921Z" fill="white"/>
</mask>
<g mask="url(#mask32_143_1141)">
<mask id="mask33_143_1141" style="mask-type:luminance" maskUnits="userSpaceOnUse" x="141" y="47" width="9" height="16">
<path d="M149.968 47.6123H141.046V62.9407H149.968V47.6123Z" fill="white"/>
</mask>
<g mask="url(#mask33_143_1141)">
<rect width="9.4235" height="15.7312" transform="matrix(1 0 0 -1 140.883 63.1572)" fill="#848484"/>
</g>
</g>
<mask id="mask34_143_1141" style="mask-type:luminance" maskUnits="userSpaceOnUse" x="129" y="40" width="13" height="12">
<path d="M134.074 47.7069C137.041 50.6935 141.001 51.2331 141.02 51.2103C141.065 51.2445 140.381 45.7462 137.045 42.7139C133.751 39.7045 129.734 40.3733 129.753 40.3505C129.791 40.3771 131.144 44.7354 134.074 47.7069Z" fill="white"/>
</mask>
<g mask="url(#mask34_143_1141)">
<mask id="mask35_143_1141" style="mask-type:luminance" maskUnits="userSpaceOnUse" x="129" y="39" width="13" height="13">
<path d="M141.061 39.7046H129.734V51.2446H141.061V39.7046Z" fill="white"/>
</mask>
<g mask="url(#mask35_143_1141)">
<rect width="11.8554" height="11.9314" transform="matrix(1 0 0 -1 129.51 51.4194)" fill="#848484"/>
</g>
</g>
<mask id="mask36_143_1141" style="mask-type:luminance" maskUnits="userSpaceOnUse" x="140" y="34" width="7" height="18">
<path d="M146.358 45.2561C144.77 49.9261 140.833 51.2142 140.864 51.2294C140.887 51.1914 140.195 46.0237 141.422 41.5171C142.68 36.9878 145.899 34.5901 145.929 34.6053C145.959 34.5559 147.977 40.552 146.355 45.2561H146.358Z" fill="white"/>
</mask>
<g mask="url(#mask36_143_1141)">
<mask id="mask37_143_1141" style="mask-type:luminance" maskUnits="userSpaceOnUse" x="140" y="34" width="8" height="18">
<path d="M147.981 34.5557H140.195V51.2292H147.981V34.5557Z" fill="white"/>
</mask>
<g mask="url(#mask37_143_1141)">
<rect width="8.20757" height="17.0991" transform="matrix(1 0 0 -1 139.994 51.4346)" fill="#848484"/>
</g>
</g>
<mask id="mask38_143_1141" style="mask-type:luminance" maskUnits="userSpaceOnUse" x="125" y="30" width="14" height="10">
<path d="M131.311 37.3259C134.769 39.7844 138.736 39.6096 138.751 39.583C138.804 39.6096 137.136 34.2481 133.283 31.7972C129.476 29.3654 125.653 30.7409 125.672 30.7143C125.718 30.7371 127.895 34.8789 131.315 37.3221L131.311 37.3259Z" fill="white"/>
</mask>
<g mask="url(#mask38_143_1141)">
<mask id="mask39_143_1141" style="mask-type:luminance" maskUnits="userSpaceOnUse" x="125" y="29" width="14" height="11">
<path d="M138.804 29.3657H125.653V39.781H138.804V29.3657Z" fill="white"/>
</mask>
<g mask="url(#mask39_143_1141)">
<rect width="13.6793" height="10.7154" transform="matrix(1 0 0 -1 125.448 39.937)" fill="#848484"/>
</g>
</g>
<mask id="mask40_143_1141" style="mask-type:luminance" maskUnits="userSpaceOnUse" x="137" y="22" width="6" height="18">
<path d="M142.885 32.6826C142.194 37.6299 138.565 39.6172 138.603 39.6248C138.622 39.5868 137.007 34.5521 137.349 29.8213C137.714 25.0602 140.396 22.0812 140.431 22.0888C140.457 22.0356 143.611 27.6935 142.889 32.6826H142.885Z" fill="white"/>
</mask>
<g mask="url(#mask40_143_1141)">
<mask id="mask41_143_1141" style="mask-type:luminance" maskUnits="userSpaceOnUse" x="137" y="22" width="7" height="18">
<path d="M143.607 22.0391H137.007V39.6283H143.607V22.0391Z" fill="white"/>
</mask>
<g mask="url(#mask41_143_1141)">
<rect width="6.99163" height="18.0111" transform="matrix(1 0 0 -1 136.821 39.8032)" fill="#848484"/>
</g>
</g>
<mask id="mask42_143_1141" style="mask-type:luminance" maskUnits="userSpaceOnUse" x="119" y="20" width="16" height="9">
<path d="M126.599 27.3968C130.49 29.2625 134.34 28.3809 134.351 28.3543C134.412 28.3733 131.729 23.2854 127.412 21.4843C123.153 19.6946 119.653 21.7389 119.665 21.7085C119.718 21.7237 122.75 25.5387 126.596 27.3968H126.599Z" fill="white"/>
</mask>
<g mask="url(#mask42_143_1141)">
<mask id="mask43_143_1141" style="mask-type:luminance" maskUnits="userSpaceOnUse" x="119" y="19" width="16" height="11">
<path d="M134.412 19.6948H119.657V29.2627H134.412V19.6948Z" fill="white"/>
</mask>
<g mask="url(#mask43_143_1141)">
<rect width="15.1992" height="9.95548" transform="matrix(1 0 0 -1 119.497 29.4756)" fill="#848484"/>
</g>
</g>
<mask id="mask44_143_1141" style="mask-type:luminance" maskUnits="userSpaceOnUse" x="130" y="10" width="8" height="19">
<path d="M137.053 20.698C137.36 25.7897 134.176 28.423 134.214 28.4268C134.226 28.385 131.664 23.62 131.015 18.7829C130.384 13.9153 132.39 10.4385 132.432 10.4423C132.451 10.3891 136.771 15.5568 137.053 20.6942V20.698Z" fill="white"/>
</mask>
<g mask="url(#mask44_143_1141)">
<mask id="mask45_143_1141" style="mask-type:luminance" maskUnits="userSpaceOnUse" x="130" y="10" width="8" height="19">
<path d="M137.36 10.3926H130.388V28.4302H137.36V10.3926Z" fill="white"/>
</mask>
<g mask="url(#mask45_143_1141)">
<rect width="7.5996" height="18.467" transform="matrix(1 0 0 -1 130.228 28.6548)" fill="#848484"/>
</g>
</g>
<mask id="mask46_143_1141" style="mask-type:luminance" maskUnits="userSpaceOnUse" x="111" y="11" width="17" height="8">
<path d="M119.878 18.1937C124.137 19.4135 127.747 17.8555 127.755 17.8251C127.823 17.8365 124.092 13.1628 119.38 12.0608C114.725 10.9627 111.685 13.6226 111.693 13.5922C111.754 13.5998 115.667 16.974 119.878 18.1937Z" fill="white"/>
</mask>
<g mask="url(#mask46_143_1141)">
<mask id="mask47_143_1141" style="mask-type:luminance" maskUnits="userSpaceOnUse" x="111" y="10" width="17" height="10">
<path d="M127.819 10.9629H111.681V19.4136H127.819V10.9629Z" fill="white"/>
</mask>
<g mask="url(#mask47_143_1141)">
<rect width="16.7191" height="8.81554" transform="matrix(1 0 0 -1 111.484 19.5884)" fill="#848484"/>
</g>
</g>
<mask id="mask48_143_1141" style="mask-type:luminance" maskUnits="userSpaceOnUse" x="121" y="0" width="9" height="18">
<path d="M128.788 9.61783C130.202 14.7172 127.591 17.9204 127.637 17.9204C127.641 17.8786 124.103 13.5088 122.363 8.70967C120.637 3.88013 121.823 0.00433245 121.869 0.000532645C121.884 -0.0564644 127.401 4.4691 128.788 9.61403V9.61783Z" fill="white"/>
</mask>
<g mask="url(#mask48_143_1141)">
<mask id="mask49_143_1141" style="mask-type:luminance" maskUnits="userSpaceOnUse" x="120" y="-1" width="11" height="19">
<path d="M130.202 -0.0532227H120.638V17.9236H130.202V-0.0532227Z" fill="white"/>
</mask>
<g mask="url(#mask49_143_1141)">
<rect width="10.0315" height="18.467" transform="matrix(1 0 0 -1 120.47 18.1479)" fill="#848484"/>
</g>
</g>
<mask id="mask50_143_1141" style="mask-type:luminance" maskUnits="userSpaceOnUse" x="73" y="7" width="69" height="119">
<path d="M73.7365 125.15L73.8201 124.216C81.5641 124.919 89.2853 124.052 96.7671 121.651C104.055 119.31 110.807 115.613 116.826 110.666C129.32 100.398 137.379 85.7464 139.519 69.4073C141.267 56.0282 140.37 44.1082 136.851 33.9741C133.07 23.0915 126.341 14.5762 116.845 8.66368L117.343 7.86572C127.025 13.8922 133.887 22.5748 137.74 33.6626C141.308 43.9372 142.22 56.0016 140.453 69.5251C138.288 86.0998 130.11 100.965 117.43 111.384C111.317 116.407 104.465 120.157 97.0635 122.536C89.4601 124.976 81.6173 125.853 73.7479 125.143L73.7365 125.15Z" fill="white"/>
</mask>
<g mask="url(#mask50_143_1141)">
<mask id="mask51_143_1141" style="mask-type:luminance" maskUnits="userSpaceOnUse" x="73" y="7" width="70" height="119">
<path d="M142.217 7.86963H73.7365V125.861H142.217V7.86963Z" fill="white"/>
</mask>
<g mask="url(#mask51_143_1141)">
<rect width="69.3084" height="119.01" transform="matrix(1 0 0 -1 73.577 125.963)" fill="#848484"/>
</g>
</g>
<mask id="mask52_143_1141" style="mask-type:luminance" maskUnits="userSpaceOnUse" x="28" y="0" width="13" height="12">
<path d="M32.6872 3.28358C29.3396 6.33482 28.7393 11.1226 28.7393 11.1226C28.7393 11.1226 33.5612 10.963 36.9088 7.91174C40.2564 4.8605 40.8568 0.0727539 40.8568 0.0727539C40.8568 0.0727539 36.0349 0.232344 32.6872 3.28358Z" fill="white"/>
</mask>
<g mask="url(#mask52_143_1141)">
<mask id="mask53_143_1141" style="mask-type:luminance" maskUnits="userSpaceOnUse" x="28" y="0" width="13" height="12">
<path d="M40.8568 0.0727539H28.7393V11.1264H40.8568V0.0727539Z" fill="white"/>
</mask>
<g mask="url(#mask53_143_1141)">
<rect width="12.7673" height="11.3994" transform="matrix(1 0 0 -1 28.5759 11.2788)" fill="#848484"/>
</g>
</g>
<mask id="mask54_143_1141" style="mask-type:luminance" maskUnits="userSpaceOnUse" x="48" y="109" width="12" height="15">
<path d="M56.2156 115.739C59.0959 119.436 59.2707 123.798 59.2327 123.813C59.2441 123.87 53.1872 122.176 50.4704 118.098C47.7535 114.074 49.0758 109.902 49.0378 109.914C49.053 109.952 53.343 112.076 56.2195 115.739H56.2156Z" fill="white"/>
</mask>
<g mask="url(#mask54_143_1141)">
<mask id="mask55_143_1141" style="mask-type:luminance" maskUnits="userSpaceOnUse" x="47" y="109" width="13" height="15">
<path d="M59.2707 109.902H47.7535V123.866H59.2707V109.902Z" fill="white"/>
</mask>
<g mask="url(#mask55_143_1141)">
<rect width="12.1594" height="14.3632" transform="matrix(1 0 0 -1 47.5939 124.037)" fill="#848484"/>
</g>
</g>
<mask id="mask56_143_1141" style="mask-type:luminance" maskUnits="userSpaceOnUse" x="40" y="122" width="20" height="7">
<path d="M51.9751 128.536C57.291 127.635 59.2707 123.615 59.2707 123.65C59.2099 123.669 53.514 122.027 48.6046 122.601C43.6497 123.205 40.7353 126.283 40.7353 126.313C40.6669 126.328 46.5984 129.456 51.9713 128.532L51.9751 128.536Z" fill="white"/>
</mask>
<g mask="url(#mask56_143_1141)">
<mask id="mask57_143_1141" style="mask-type:luminance" maskUnits="userSpaceOnUse" x="40" y="122" width="20" height="8">
<path d="M59.2745 122.023H40.6707V129.456H59.2745V122.023Z" fill="white"/>
</mask>
<g mask="url(#mask57_143_1141)">
<rect width="19.151" height="7.75159" transform="matrix(1 0 0 -1 40.4693 129.623)" fill="#848484"/>
</g>
</g>
<mask id="mask58_143_1141" style="mask-type:luminance" maskUnits="userSpaceOnUse" x="39" y="104" width="9" height="16">
<path d="M45.7092 111.122C47.6889 115.172 46.9783 119.413 46.9403 119.421C46.9441 119.478 41.6244 116.833 39.8309 112.436C38.0336 108.086 40.0779 104.275 40.0399 104.278C40.0475 104.32 43.7257 107.105 45.7054 111.122H45.7092Z" fill="white"/>
</mask>
<g mask="url(#mask58_143_1141)">
<mask id="mask59_143_1141" style="mask-type:luminance" maskUnits="userSpaceOnUse" x="38" y="104" width="10" height="16">
<path d="M47.6889 104.271H38.0336V119.474H47.6889V104.271Z" fill="white"/>
</mask>
<g mask="url(#mask59_143_1141)">
<rect width="10.3355" height="15.6552" transform="matrix(1 0 0 -1 37.8284 119.694)" fill="#848484"/>
</g>
</g>
<mask id="mask60_143_1141" style="mask-type:luminance" maskUnits="userSpaceOnUse" x="29" y="116" width="19" height="7">
<path d="M39.2191 122.768C44.3869 122.783 47.0163 119.234 47.0125 119.269C46.9555 119.276 41.9626 116.742 37.1977 116.472C32.3871 116.217 29.0167 118.702 29.0129 118.733C28.9483 118.737 33.9982 122.764 39.2191 122.768Z" fill="white"/>
</mask>
<g mask="url(#mask60_143_1141)">
<mask id="mask61_143_1141" style="mask-type:luminance" maskUnits="userSpaceOnUse" x="28" y="116" width="20" height="7">
<path d="M47.0125 116.221H28.9445V122.787H47.0125V116.221Z" fill="white"/>
</mask>
<g mask="url(#mask61_143_1141)">
<rect width="18.847" height="6.91564" transform="matrix(1 0 0 -1 28.7203 122.981)" fill="#848484"/>
</g>
</g>
<mask id="mask62_143_1141" style="mask-type:luminance" maskUnits="userSpaceOnUse" x="30" y="97" width="8" height="17">
<path d="M36.6391 104.879C37.7638 109.138 36.2667 113.113 36.2325 113.117C36.2325 113.174 31.6727 109.716 30.7608 105.145C29.8374 100.623 32.5011 97.2753 32.4669 97.2715C32.4669 97.3133 35.5105 100.653 36.6391 104.879Z" fill="white"/>
</mask>
<g mask="url(#mask62_143_1141)">
<mask id="mask63_143_1141" style="mask-type:luminance" maskUnits="userSpaceOnUse" x="29" y="97" width="9" height="17">
<path d="M37.7638 97.2681H29.8374V113.166H37.7638V97.2681Z" fill="white"/>
</mask>
<g mask="url(#mask63_143_1141)">
<rect width="8.51155" height="16.3391" transform="matrix(1 0 0 -1 29.6436 113.364)" fill="#848484"/>
</g>
</g>
<mask id="mask64_143_1141" style="mask-type:luminance" maskUnits="userSpaceOnUse" x="19" y="108" width="18" height="8">
<path d="M28.2339 115.043C33.166 115.936 36.3313 112.946 36.3237 112.98C36.2705 112.98 32.0071 109.682 27.4739 108.603C22.8952 107.531 19.179 109.359 19.1714 109.389C19.1106 109.385 23.2448 114.154 28.2301 115.043H28.2339Z" fill="white"/>
</mask>
<g mask="url(#mask64_143_1141)">
<mask id="mask65_143_1141" style="mask-type:luminance" maskUnits="userSpaceOnUse" x="19" y="107" width="18" height="9">
<path d="M36.3351 107.535H19.1144V115.94H36.3351V107.535Z" fill="white"/>
</mask>
<g mask="url(#mask65_143_1141)">
<rect width="17.9351" height="8.81554" transform="matrix(1 0 0 -1 18.9358 116.149)" fill="#848484"/>
</g>
</g>
<mask id="mask66_143_1141" style="mask-type:luminance" maskUnits="userSpaceOnUse" x="23" y="89" width="7" height="17">
<path d="M29.0661 97.2641C29.3815 101.596 27.2004 105.187 27.17 105.183C27.1624 105.236 23.3968 101.102 23.3208 96.4966C23.2296 91.9406 26.4025 89.1439 26.3683 89.1401C26.3683 89.1819 28.7394 92.9665 29.0661 97.2641Z" fill="white"/>
</mask>
<g mask="url(#mask66_143_1141)">
<mask id="mask67_143_1141" style="mask-type:luminance" maskUnits="userSpaceOnUse" x="23" y="89" width="7" height="17">
<path d="M29.3814 89.1401H23.2296V105.236H29.3814V89.1401Z" fill="white"/>
</mask>
<g mask="url(#mask67_143_1141)">
<rect width="6.68765" height="16.4911" transform="matrix(1 0 0 -1 23.0282 105.415)" fill="#848484"/>
</g>
</g>
<mask id="mask68_143_1141" style="mask-type:luminance" maskUnits="userSpaceOnUse" x="11" y="98" width="17" height="9">
<path d="M19.0954 105.677C23.7046 107.394 27.2954 105.042 27.284 105.073C27.2346 105.065 23.7312 101.132 19.5172 99.2932C15.2614 97.4579 11.3172 98.5788 11.3058 98.6092C11.2488 98.594 14.4368 103.956 19.0954 105.677Z" fill="white"/>
</mask>
<g mask="url(#mask68_143_1141)">
<mask id="mask69_143_1141" style="mask-type:luminance" maskUnits="userSpaceOnUse" x="11" y="97" width="17" height="11">
<path d="M27.2953 97.4536H11.2488V107.394H27.2953V97.4536Z" fill="white"/>
</mask>
<g mask="url(#mask69_143_1141)">
<rect width="16.7191" height="10.3355" transform="matrix(1 0 0 -1 11.0665 107.607)" fill="#848484"/>
</g>
</g>
<mask id="mask70_143_1141" style="mask-type:luminance" maskUnits="userSpaceOnUse" x="17" y="80" width="7" height="16">
<path d="M23.0586 88.5356C22.614 92.8066 19.8554 95.9186 19.825 95.911C19.8098 95.9642 16.8725 91.2829 17.5831 86.7763C18.2708 82.3154 21.8465 80.1419 21.8161 80.1343C21.8047 80.1761 23.4918 84.2951 23.0586 88.5356Z" fill="white"/>
</mask>
<g mask="url(#mask70_143_1141)">
<mask id="mask71_143_1141" style="mask-type:luminance" maskUnits="userSpaceOnUse" x="16" y="80" width="8" height="16">
<path d="M23.488 80.1343H16.8725V95.9642H23.488V80.1343Z" fill="white"/>
</mask>
<g mask="url(#mask71_143_1141)">
<rect width="7.29562" height="16.1871" transform="matrix(1 0 0 -1 16.6711 96.1313)" fill="#848484"/>
</g>
</g>
<mask id="mask72_143_1141" style="mask-type:luminance" maskUnits="userSpaceOnUse" x="5" y="86" width="15" height="11">
<path d="M11.8758 94.9804C16.067 97.4616 19.9732 95.7935 19.958 95.8239C19.9124 95.8087 17.1955 91.3705 13.3881 88.8323C9.54274 86.2902 5.49215 86.6892 5.47695 86.7158C5.42375 86.693 7.63524 92.4877 11.8758 94.9804Z" fill="white"/>
</mask>
<g mask="url(#mask72_143_1141)">
<mask id="mask73_143_1141" style="mask-type:luminance" maskUnits="userSpaceOnUse" x="5" y="86" width="15" height="12">
<path d="M19.977 86.29H5.42755V97.4577H19.977V86.29Z" fill="white"/>
</mask>
<g mask="url(#mask73_143_1141)">
<rect width="15.1992" height="11.5514" transform="matrix(1 0 0 -1 5.2337 97.6665)" fill="#848484"/>
</g>
</g>
<mask id="mask74_143_1141" style="mask-type:luminance" maskUnits="userSpaceOnUse" x="13" y="70" width="7" height="16">
<path d="M18.6774 78.9566C17.5223 83.0566 14.2925 85.6025 14.2659 85.5911C14.2431 85.6405 12.1646 80.5525 13.6085 76.2626C15.0296 72.0144 18.8902 70.5211 18.8636 70.5059C18.8484 70.5439 19.8136 74.887 18.6774 78.9604V78.9566Z" fill="white"/>
</mask>
<g mask="url(#mask74_143_1141)">
<mask id="mask75_143_1141" style="mask-type:luminance" maskUnits="userSpaceOnUse" x="12" y="70" width="8" height="16">
<path d="M19.8136 70.5059H12.1646V85.6405H19.8136V70.5059Z" fill="white"/>
</mask>
<g mask="url(#mask75_143_1141)">
<rect width="8.20757" height="15.5032" transform="matrix(1 0 0 -1 12.0012 85.8081)" fill="#848484"/>
</g>
</g>
<mask id="mask76_143_1141" style="mask-type:luminance" maskUnits="userSpaceOnUse" x="1" y="74" width="14" height="12">
<path d="M6.64726 83.2692C10.3331 86.4344 14.4292 85.4997 14.4102 85.5263C14.3723 85.5035 12.4647 80.6891 9.15892 77.5239C5.8189 74.3472 1.78351 74.0129 1.76451 74.0395C1.71511 74.0091 2.91965 80.0849 6.64726 83.2692Z" fill="white"/>
</mask>
<g mask="url(#mask76_143_1141)">
<mask id="mask77_143_1141" style="mask-type:luminance" maskUnits="userSpaceOnUse" x="1" y="74" width="14" height="13">
<path d="M14.4293 74.0093H1.71515V86.4384H14.4293V74.0093Z" fill="white"/>
</mask>
<g mask="url(#mask77_143_1141)">
<rect width="13.3753" height="12.8433" transform="matrix(1 0 0 -1 1.54413 86.624)" fill="#848484"/>
</g>
</g>
<mask id="mask78_143_1141" style="mask-type:luminance" maskUnits="userSpaceOnUse" x="10" y="60" width="8" height="15">
<path d="M15.9871 68.7844C14.1708 72.6032 10.5838 74.5221 10.561 74.5069C10.5306 74.5525 9.34128 69.191 11.473 65.2278C13.5705 61.2988 17.6058 60.5161 17.583 60.4971C17.5602 60.5313 17.7806 64.9922 15.9909 68.7882L15.9871 68.7844Z" fill="white"/>
</mask>
<g mask="url(#mask78_143_1141)">
<mask id="mask79_143_1141" style="mask-type:luminance" maskUnits="userSpaceOnUse" x="9" y="60" width="9" height="15">
<path d="M17.7768 60.4971H9.34125V74.5525H17.7768V60.4971Z" fill="white"/>
</mask>
<g mask="url(#mask79_143_1141)">
<rect width="9.11952" height="14.4392" transform="matrix(1 0 0 -1 9.15131 74.7349)" fill="#848484"/>
</g>
</g>
<mask id="mask80_143_1141" style="mask-type:luminance" maskUnits="userSpaceOnUse" x="0" y="60" width="11" height="15">
<path d="M3.48202 70.8669C6.56365 74.6363 10.7358 74.4425 10.7092 74.4691C10.675 74.4425 9.60729 69.3811 6.89804 65.6687C4.15458 61.9449 0.259785 60.8848 0.236986 60.9076C0.195189 60.8696 0.35478 67.0747 3.47822 70.8669H3.48202Z" fill="white"/>
</mask>
<g mask="url(#mask80_143_1141)">
<mask id="mask81_143_1141" style="mask-type:luminance" maskUnits="userSpaceOnUse" x="0" y="60" width="11" height="15">
<path d="M10.7358 60.8735H0.198975V74.6364H10.7358V60.8735Z" fill="white"/>
</mask>
<g mask="url(#mask81_143_1141)">
<rect width="10.9434" height="14.2113" transform="matrix(1 0 0 -1 0.0356445 74.8564)" fill="#848484"/>
</g>
</g>
<mask id="mask82_143_1141" style="mask-type:luminance" maskUnits="userSpaceOnUse" x="8" y="50" width="11" height="13">
<path d="M15.0486 58.2815C12.6282 61.7279 8.79797 62.9704 8.77517 62.9514C8.73717 62.9932 8.46739 57.4911 11.2298 53.9497C13.9543 50.4387 18.0391 50.3817 18.0201 50.3589C17.9897 50.3893 17.4387 54.854 15.0486 58.2815Z" fill="white"/>
</mask>
<g mask="url(#mask82_143_1141)">
<mask id="mask83_143_1141" style="mask-type:luminance" maskUnits="userSpaceOnUse" x="8" y="50" width="11" height="13">
<path d="M18.0428 50.3589H8.47113V62.9894H18.0428V50.3589Z" fill="white"/>
</mask>
<g mask="url(#mask83_143_1141)">
<rect width="10.0315" height="13.0713" transform="matrix(1 0 0 -1 8.31537 63.2065)" fill="#848484"/>
</g>
</g>
<mask id="mask84_143_1141" style="mask-type:luminance" maskUnits="userSpaceOnUse" x="0" y="47" width="9" height="16">
<path d="M2.45992 58.0921C4.84239 62.363 8.96138 62.9216 8.93478 62.9406C8.90818 62.9064 8.70679 57.7273 6.6853 53.5665C4.63721 49.3867 1.0122 47.635 0.985598 47.654C0.9476 47.6122 0.0356469 53.7869 2.45992 58.0883V58.0921Z" fill="white"/>
</mask>
<g mask="url(#mask84_143_1141)">
<mask id="mask85_143_1141" style="mask-type:luminance" maskUnits="userSpaceOnUse" x="0" y="47" width="9" height="16">
<path d="M8.95751 47.6123H0.0355835V62.9407H8.95751V47.6123Z" fill="white"/>
</mask>
<g mask="url(#mask85_143_1141)">
<rect width="9.4235" height="15.7312" transform="matrix(1 0 0 -1 -0.165771 63.1572)" fill="#848484"/>
</g>
</g>
<mask id="mask86_143_1141" style="mask-type:luminance" maskUnits="userSpaceOnUse" x="8" y="40" width="13" height="12">
<path d="M15.9302 47.7069C12.9625 50.6935 9.00314 51.2331 8.98414 51.2103C8.93854 51.2445 9.6225 45.7462 12.9587 42.7139C16.2532 39.7045 20.2695 40.3733 20.2505 40.3505C20.2125 40.3771 18.8598 44.7354 15.9302 47.7069Z" fill="white"/>
</mask>
<g mask="url(#mask86_143_1141)">
<mask id="mask87_143_1141" style="mask-type:luminance" maskUnits="userSpaceOnUse" x="8" y="39" width="13" height="13">
<path d="M20.2733 39.7046H8.94232V51.2446H20.2733V39.7046Z" fill="white"/>
</mask>
<g mask="url(#mask87_143_1141)">
<rect width="11.8554" height="11.9314" transform="matrix(1 0 0 -1 8.79034 51.4194)" fill="#848484"/>
</g>
</g>
<mask id="mask88_143_1141" style="mask-type:luminance" maskUnits="userSpaceOnUse" x="3" y="34" width="7" height="18">
<path d="M3.64538 45.2561C5.2337 49.9261 9.17029 51.2142 9.13989 51.2294C9.11709 51.1914 9.80866 46.0237 8.58132 41.5171C7.32739 36.9878 4.10515 34.5901 4.07476 34.6053C4.04436 34.5559 2.02666 40.552 3.64918 45.2561H3.64538Z" fill="white"/>
</mask>
<g mask="url(#mask88_143_1141)">
<mask id="mask89_143_1141" style="mask-type:luminance" maskUnits="userSpaceOnUse" x="2" y="34" width="8" height="18">
<path d="M9.80868 34.5557H2.02289V51.2292H9.80868V34.5557Z" fill="white"/>
</mask>
<g mask="url(#mask89_143_1141)">
<rect width="8.20757" height="17.0991" transform="matrix(1 0 0 -1 1.85571 51.4346)" fill="#848484"/>
</g>
</g>
<mask id="mask90_143_1141" style="mask-type:luminance" maskUnits="userSpaceOnUse" x="11" y="30" width="14" height="10">
<path d="M18.6964 37.3259C15.2386 39.7844 11.2716 39.6096 11.2564 39.583C11.2032 39.6096 12.8713 34.2481 16.7281 31.7972C20.5355 29.3654 24.3581 30.7409 24.3391 30.7143C24.2935 30.7371 22.1162 34.8789 18.6964 37.3221V37.3259Z" fill="white"/>
</mask>
<g mask="url(#mask90_143_1141)">
<mask id="mask91_143_1141" style="mask-type:luminance" maskUnits="userSpaceOnUse" x="11" y="29" width="14" height="11">
<path d="M24.3544 29.3657H11.2032V39.781H24.3544V29.3657Z" fill="white"/>
</mask>
<g mask="url(#mask91_143_1141)">
<rect width="13.6793" height="10.7154" transform="matrix(1 0 0 -1 11.0436 39.937)" fill="#848484"/>
</g>
</g>
<mask id="mask92_143_1141" style="mask-type:luminance" maskUnits="userSpaceOnUse" x="7" y="22" width="6" height="18">
<path d="M7.11848 32.6826C7.81005 37.6299 11.4389 39.6172 11.4009 39.6248C11.3857 39.5868 12.9968 34.5521 12.6548 29.8213C12.29 25.0602 9.60735 22.0812 9.57315 22.0888C9.54656 22.0356 6.39652 27.6935 7.11848 32.6826Z" fill="white"/>
</mask>
<g mask="url(#mask92_143_1141)">
<mask id="mask93_143_1141" style="mask-type:luminance" maskUnits="userSpaceOnUse" x="6" y="22" width="7" height="18">
<path d="M12.9967 22.0391H6.39642V39.6283H12.9967V22.0391Z" fill="white"/>
</mask>
<g mask="url(#mask93_143_1141)">
<rect width="6.99163" height="18.0111" transform="matrix(1 0 0 -1 6.23694 39.8032)" fill="#848484"/>
</g>
</g>
<mask id="mask94_143_1141" style="mask-type:luminance" maskUnits="userSpaceOnUse" x="15" y="20" width="16" height="9">
<path d="M23.4044 27.3968C19.5134 29.2625 15.6642 28.3809 15.6528 28.3543C15.592 28.3733 18.2747 23.2854 22.5912 21.4843C26.8508 19.6946 30.3504 21.7389 30.339 21.7085C30.2858 21.7237 27.2536 25.5387 23.4082 27.3968H23.4044Z" fill="white"/>
</mask>
<g mask="url(#mask94_143_1141)">
<mask id="mask95_143_1141" style="mask-type:luminance" maskUnits="userSpaceOnUse" x="15" y="19" width="16" height="11">
<path d="M30.3467 19.6948H15.592V29.2627H30.3467V19.6948Z" fill="white"/>
</mask>
<g mask="url(#mask95_143_1141)">
<rect width="15.1992" height="9.95548" transform="matrix(1 0 0 -1 15.4058 29.4756)" fill="#848484"/>
</g>
</g>
<mask id="mask96_143_1141" style="mask-type:luminance" maskUnits="userSpaceOnUse" x="12" y="10" width="8" height="19">
<path d="M12.9511 20.698C12.6434 25.7897 15.8276 28.423 15.7896 28.4268C15.7782 28.385 18.3393 23.62 18.989 18.7829C19.6198 13.9153 17.6135 10.4385 17.5717 10.4423C17.5527 10.3891 13.2323 15.5568 12.9511 20.6942V20.698Z" fill="white"/>
</mask>
<g mask="url(#mask96_143_1141)">
<mask id="mask97_143_1141" style="mask-type:luminance" maskUnits="userSpaceOnUse" x="12" y="10" width="8" height="19">
<path d="M19.6122 10.3926H12.6396V28.4302H19.6122V10.3926Z" fill="white"/>
</mask>
<g mask="url(#mask97_143_1141)">
<rect width="7.5996" height="18.467" transform="matrix(1 0 0 -1 12.4496 28.6548)" fill="#848484"/>
</g>
</g>
<mask id="mask98_143_1141" style="mask-type:luminance" maskUnits="userSpaceOnUse" x="22" y="11" width="17" height="8">
<path d="M30.13 18.1937C25.8704 19.4135 22.2606 17.8555 22.253 17.8251C22.1846 17.8365 25.916 13.1628 30.6278 12.0608C35.2825 10.9627 38.3224 13.6226 38.3148 13.5922C38.254 13.5998 34.3402 16.974 30.13 18.1937Z" fill="white"/>
</mask>
<g mask="url(#mask98_143_1141)">
<mask id="mask99_143_1141" style="mask-type:luminance" maskUnits="userSpaceOnUse" x="22" y="10" width="17" height="10">
<path d="M38.3224 10.9629H22.1847V19.4136H38.3224V10.9629Z" fill="white"/>
</mask>
<g mask="url(#mask99_143_1141)">
<rect width="16.7191" height="8.81554" transform="matrix(1 0 0 -1 21.9832 19.5884)" fill="#848484"/>
</g>
</g>
<mask id="mask100_143_1141" style="mask-type:luminance" maskUnits="userSpaceOnUse" x="20" y="0" width="9" height="18">
<path d="M21.2157 9.61783C19.8022 14.7172 22.4126 17.9204 22.367 17.9204C22.3632 17.8786 25.9009 13.5088 27.6412 8.70967C29.3663 3.88013 28.1807 0.00433245 28.1351 0.000532645C28.1199 -0.0564644 22.6026 4.4691 21.2157 9.61403V9.61783Z" fill="white"/>
</mask>
<g mask="url(#mask100_143_1141)">
<mask id="mask101_143_1141" style="mask-type:luminance" maskUnits="userSpaceOnUse" x="19" y="-1" width="11" height="19">
<path d="M29.3701 -0.0532227H19.806V17.9236H29.3701V-0.0532227Z" fill="white"/>
</mask>
<g mask="url(#mask101_143_1141)">
<rect width="10.0315" height="18.467" transform="matrix(1 0 0 -1 19.6426 18.1479)" fill="#848484"/>
</g>
</g>
<mask id="mask102_143_1141" style="mask-type:luminance" maskUnits="userSpaceOnUse" x="8" y="7" width="69" height="119">
<path d="M76.2672 125.15L76.1836 124.216C68.4396 124.919 60.7184 124.052 53.2366 121.651C45.9486 119.31 39.1964 115.613 33.1775 110.666C20.6838 100.398 12.6244 85.7464 10.4889 69.4073C8.74098 56.0282 9.63773 44.1082 13.1563 33.9741C16.9371 23.0915 23.6666 14.5762 33.1623 8.66368L32.6645 7.86572C22.9826 13.8922 16.1202 22.5748 12.2672 33.6626C8.69918 43.9372 7.78723 56.0016 9.55413 69.5251C11.7238 86.0998 19.8972 100.965 32.5809 111.384C38.6948 116.407 45.5458 120.157 52.9479 122.536C60.5513 124.976 68.394 125.853 76.2634 125.143L76.2672 125.15Z" fill="white"/>
</mask>
<g mask="url(#mask102_143_1141)">
<mask id="mask103_143_1141" style="mask-type:luminance" maskUnits="userSpaceOnUse" x="7" y="7" width="70" height="119">
<path d="M76.2672 7.86963H7.78723V125.861H76.2672V7.86963Z" fill="white"/>
</mask>
<g mask="url(#mask103_143_1141)">
<rect width="69.3084" height="119.01" transform="matrix(1 0 0 -1 7.64661 125.963)" fill="#848484"/>
</g>
</g>
<mask id="mask104_143_1141" style="mask-type:luminance" maskUnits="userSpaceOnUse" x="67" y="120" width="15" height="11">
<path d="M74.7244 120.371L67.6302 125.584L74.7244 130.801L81.8148 125.584L74.7244 120.371Z" fill="white"/>
</mask>
<g mask="url(#mask104_143_1141)">
<mask id="mask105_143_1141" style="mask-type:luminance" maskUnits="userSpaceOnUse" x="67" y="120" width="15" height="11">
<path d="M81.8148 120.371H67.6302V130.801H81.8148V120.371Z" fill="white"/>
</mask>
<g mask="url(#mask105_143_1141)">
<rect width="14.8952" height="10.7914" transform="matrix(1 0 0 -1 67.4591 130.976)" fill="#848484"/>
</g>
</g>
<defs>
<clipPath id="clip0_143_1141">
<rect width="85.796" height="48.146" fill="white" transform="translate(31.7678 37)"/>
</clipPath>
</defs>
</svg>
